<svg width="146" height="146" viewBox="0 0 146 146" fill="none" xmlns="http://www.w3.org/2000/svg">
<rect width="146" height="146" rx="22" fill="#0D0C0B"/>
<g transform="translate(3.5, 0)">
<path d="M26.704 104.36C24.928 104.36 23.656 103.976 22.888 103.208C22.12 102.392 21.736 100.88 21.736 98.672C21.736 97.184 21.88 95.288 22.168 92.984C22.504 90.632 23.032 87.416 23.752 83.336C25 75.8 25.984 69.272 26.704 63.752C27.136 60.296 27.352 57.416 27.352 55.112C27.352 52.952 26.56 51.872 24.976 51.872C23.728 51.872 22.216 52.52 20.44 53.816C18.712 55.064 16.792 57.08 14.68 59.864C14.008 60.776 13.264 61.232 12.448 61.232C11.776 61.232 11.176 60.92 10.648 60.296C10.168 59.624 9.928 58.88 9.928 58.064C9.928 57.296 10.072 56.528 10.36 55.76C10.696 54.944 11.224 54.032 11.944 53.024C14.248 49.808 16.816 47.336 19.648 45.608C22.48 43.832 25.312 42.944 28.144 42.944C30.784 42.944 32.8 43.784 34.192 45.464C35.632 47.144 36.352 49.592 36.352 52.808C36.352 54.104 36.232 55.64 35.992 57.416C35.752 59.144 35.536 60.56 35.344 61.664C35.152 62.768 35.008 63.536 34.912 63.968C37.648 56.144 40.72 50.696 44.128 47.624C47.536 44.504 51.28 42.944 55.36 42.944C58.48 42.944 60.928 44.048 62.704 46.256C64.528 48.464 65.44 51.584 65.44 55.616C65.44 57.2 65.224 59.168 64.792 61.52C67.192 54.896 70 50.144 73.216 47.264C76.432 44.384 80.128 42.944 84.304 42.944C87.664 42.944 90.232 44.024 92.008 46.184C93.832 48.344 94.744 51.368 94.744 55.256C94.744 57.368 94.432 59.936 93.808 62.96L89.416 83.552C88.936 85.952 88.696 88.016 88.696 89.744C88.696 91.76 89.152 93.272 90.064 94.28C91.024 95.288 92.344 95.792 94.024 95.792C95.608 95.792 97.144 95.264 98.632 94.208C100.168 93.152 101.968 91.4 104.032 88.952C104.608 88.28 105.256 87.944 105.976 87.944C106.6 87.944 107.08 88.232 107.416 88.808C107.8 89.384 107.992 90.176 107.992 91.184C107.992 93.056 107.536 94.544 106.624 95.648C104.128 98.672 101.656 100.88 99.208 102.272C96.76 103.664 94.192 104.36 91.504 104.36C87.424 104.36 84.232 103.16 81.928 100.76C79.624 98.312 78.472 95.048 78.472 90.968C78.472 88.136 79.048 84.032 80.2 78.656L83.08 65.48C83.176 65.048 83.344 64.28 83.584 63.176C83.824 62.072 84.016 61.04 84.16 60.08C84.304 59.072 84.376 58.088 84.376 57.128C84.376 55.448 84.04 54.2 83.368 53.384C82.744 52.52 81.832 52.088 80.632 52.088C78.376 52.088 76 53.552 73.504 56.48C71.056 59.36 68.704 64.16 66.448 70.88C64.24 77.6 62.44 86.336 61.048 97.088C60.712 99.968 60.112 101.912 59.248 102.92C58.432 103.88 57.088 104.36 55.216 104.36C53.584 104.36 52.384 103.976 51.616 103.208C50.896 102.44 50.536 101 50.536 98.888C50.536 96.92 50.8 94.352 51.328 91.184C51.856 87.968 52.528 84.2 53.344 79.88C55.552 68.264 56.656 60.776 56.656 57.416C56.656 55.592 56.296 54.248 55.576 53.384C54.904 52.52 53.872 52.088 52.48 52.088C50.128 52.088 47.704 53.432 45.208 56.12C42.712 58.76 40.264 63.488 37.864 70.304C35.512 77.072 33.544 86.24 31.96 97.808C31.624 100.256 31.12 101.96 30.448 102.92C29.824 103.88 28.576 104.36 26.704 104.36ZM118.296 104.36C116.184 104.36 114.576 103.784 113.472 102.632C112.416 101.48 111.888 99.968 111.888 98.096C111.888 95.936 112.488 94.208 113.688 92.912C114.936 91.616 116.664 90.968 118.872 90.968C120.984 90.968 122.568 91.496 123.624 92.552C124.728 93.56 125.28 95.072 125.28 97.088C125.28 99.296 124.656 101.072 123.408 102.416C122.16 103.712 120.456 104.36 118.296 104.36Z" fill="white"/>
</g>
</svg>
